<?xml version="1.0" standalone="no"?>
<!DOCTYPE svg PUBLIC "-//W3C//DTD SVG 20010904//EN"
 "http://www.w3.org/TR/2001/REC-SVG-20010904/DTD/svg10.dtd">
<svg version="1.0" xmlns="http://www.w3.org/2000/svg"
 width="884.000000pt" height="980.000000pt" viewBox="0 0 884.000000 980.000000"
 preserveAspectRatio="xMidYMid meet">
<metadata>
Created by potrace 1.16, written by Peter Selinger 2001-2019
</metadata>
<g transform="translate(0.000000,980.000000) scale(0.100000,-0.100000)"
fill="#000000" stroke="#ffffff">
<path fill="#ffffff" d="M4370 9791 c-48 -16 -4255 -1664 -4280 -1676 -54 -28 -72 -59 -81
-142 -4 -43 -8 -1313 -8 -2823 -1 -2633 0 -2747 18 -2785 10 -22 24 -45 32
-52 8 -6 982 -527 2164 -1158 1570 -838 2161 -1149 2192 -1152 33 -4 54 1 113
31 111 57 4115 2192 4198 2239 47 27 81 53 95 77 l22 35 0 2815 c0 2797 0
2815 -20 2849 -11 19 -31 42 -45 53 -14 10 -676 273 -1470 584 -795 310 -1756
686 -2137 835 -380 149 -709 272 -730 274 -21 3 -49 1 -63 -4z m2035 -1081
c1082 -424 1971 -772 1973 -775 3 -2 -24 -18 -59 -33 -35 -16 -927 -428 -1981
-915 l-1917 -887 -1668 771 c-917 424 -1805 834 -1973 911 -168 77 -309 144
-313 148 -4 4 313 132 705 285 392 154 1278 500 1968 771 690 271 1264 493
1276 493 11 1 906 -346 1989 -769z m-4097 -1968 l1962 -906 0 -2713 c0 -1492
-2 -2713 -5 -2713 -3 0 -854 453 -1892 1006 -1039 553 -1927 1027 -1975 1053
l-88 46 0 2574 c0 2446 1 2573 18 2567 9 -4 900 -415 1980 -914z m6222 -1654
l0 -2573 -1974 -1052 c-1085 -579 -1976 -1053 -1980 -1053 -3 0 -6 1221 -6
2713 l0 2712 1973 912 c1084 502 1975 912 1980 913 4 0 7 -1158 7 -2572z"/>
</g>
</svg>
