<?xml version="1.0" standalone="no"?>
<!DOCTYPE svg PUBLIC "-//W3C//DTD SVG 20010904//EN"
 "http://www.w3.org/TR/2001/REC-SVG-20010904/DTD/svg10.dtd">
<svg version="1.0" xmlns="http://www.w3.org/2000/svg"
 width="900.000000pt" height="875.000000pt" viewBox="0 0 900.000000 875.000000"
 preserveAspectRatio="xMidYMid meet">
<metadata>
Created by potrace 1.16, written by Peter Selinger 2001-2019
</metadata>
<g transform="translate(0.000000,875.000000) scale(0.100000,-0.100000)" stroke="none">
<path fill="#ffffff" d="M2842 8062 l-1053 -687 -894 -1190 c-492 -654 -895 -1196 -895 -1204
0 -8 200 -565 445 -1237 l446 -1223 681 -1178 c374 -648 683 -1181 687 -1184
10 -11 2678 -159 2856 -160 l160 0 1165 293 1165 292 697 1334 698 1333 0 226
c0 181 -16 458 -80 1372 -44 630 -81 1154 -82 1163 -2 9 -446 474 -987 1032
-821 848 -990 1018 -1020 1025 -113 30 -2903 681 -2918 681 -10 0 -492 -310
-1071 -688z m2483 -2 c677 -161 1231 -293 1232 -294 1 -1 -110 -276 -247 -611
l-248 -610 -565 -63 -564 -63 -556 313 c-435 244 -557 317 -557 332 0 17 219
1204 235 1274 4 16 11 22 23 18 9 -2 571 -136 1247 -296z m-1760 -426 c-64
-302 -118 -559 -121 -571 -6 -24 -429 -416 -443 -411 -5 2 -187 134 -404 293
l-395 290 42 27 c341 227 1432 933 1434 928 1 -3 -50 -253 -113 -556z m4553
-1365 l254 -257 -53 -25 c-30 -13 -362 -174 -738 -356 -376 -182 -686 -331
-688 -331 -2 0 -27 16 -55 35 l-52 34 -233 513 c-129 282 -234 520 -235 528
-1 8 104 256 232 550 128 294 241 555 252 579 l19 44 521 -529 c287 -291 636
-644 776 -785z m-5752 449 l395 -302 -63 -62 c-35 -34 -447 -427 -917 -872
l-853 -809 -243 166 -242 165 86 117 c939 1270 1418 1908 1429 1904 7 -2 190
-140 408 -307z m1641 -223 l271 -160 -356 -42 c-196 -23 -372 -42 -390 -42
-26 -1 -54 15 -137 80 -58 44 -105 82 -105 84 0 2 75 72 166 154 l167 151 57
-33 c31 -17 178 -104 327 -192z m2200 -535 c68 -151 131 -290 138 -308 l15
-33 -43 23 c-23 13 -238 132 -477 263 -265 146 -427 241 -415 243 158 25 625
90 639 88 14 -1 47 -65 143 -276z m-3034 134 c64 -50 112 -93 111 -103 0 -9
-101 -556 -224 -1217 l-224 -1200 -530 -251 -529 -251 -309 651 c-169 359
-309 657 -311 664 -1 8 1887 1789 1901 1792 2 1 54 -38 115 -85z m2516 -549
l938 -526 22 -67 23 -67 -176 -799 c-97 -440 -176 -801 -176 -802 0 -2 -977
-866 -1031 -911 l-26 -23 -1044 606 c-574 334 -1046 608 -1048 610 -7 6 440
2358 450 2368 8 9 1002 132 1087 135 39 1 127 -46 981 -524z m2814 78 c20
-184 169 -2014 165 -2018 -2 -3 -292 98 -642 223 l-638 228 -174 381 -174 382
16 78 c10 43 22 83 28 90 10 11 1391 690 1407 692 4 1 9 -25 12 -56z m-7377
-1991 c173 -380 314 -695 314 -699 0 -12 -282 -135 -290 -126 -3 4 -141 382
-305 838 -164 457 -300 836 -303 843 -2 7 57 -27 133 -76 l137 -89 314 -691z
m5899 510 c42 -96 75 -175 73 -177 -30 -30 -293 -253 -295 -251 -2 1 29 138
69 304 39 166 73 301 74 299 1 -1 37 -80 79 -175z m950 -649 c347 -135 635
-247 641 -250 10 -3 -1142 -2253 -1166 -2277 -5 -5 -243 112 -557 274 -301
155 -549 283 -550 284 0 0 77 370 173 821 95 451 174 823 174 827 0 3 140 135
312 292 213 196 317 285 328 281 8 -4 299 -117 645 -252z m-3928 -814 c587
-341 1069 -622 1071 -624 3 -3 -37 -537 -41 -541 -3 -3 -2480 -215 -2482 -212
-12 20 -688 1477 -689 1486 0 8 210 112 529 261 292 137 533 249 537 250 4 1
488 -278 1075 -620z m2053 -494 c-67 -319 -122 -581 -124 -583 -5 -4 -569 -62
-573 -59 -1 1 7 119 18 262 l20 260 32 32 c78 79 742 679 745 673 1 -3 -52
-267 -118 -585z m-4152 -316 l358 -773 -22 -134 c-13 -74 -24 -138 -26 -143
-3 -10 -958 1674 -958 1688 1 8 282 145 287 139 2 -2 164 -351 361 -777z
m4617 -854 c249 -130 443 -236 435 -239 -8 -3 -375 -89 -815 -191 -440 -102
-806 -188 -814 -190 -15 -6 -15 -17 6 591 l6 190 361 36 c199 19 363 36 366
36 3 1 207 -104 455 -233z m-1505 98 c0 -66 -38 -775 -42 -777 -6 -4 -2438
141 -2443 146 -5 5 62 459 70 466 3 4 2300 197 2388 201 25 1 27 -2 27 -36z"/>
</g>
</svg>
