<?xml version="1.0" standalone="no"?>
<!DOCTYPE svg PUBLIC "-//W3C//DTD SVG 20010904//EN"
 "http://www.w3.org/TR/2001/REC-SVG-20010904/DTD/svg10.dtd">
<svg version="1.0" xmlns="http://www.w3.org/2000/svg"
 width="2000.000000pt" height="2000.000000pt" viewBox="0 0 2000.000000 2000.000000"
 preserveAspectRatio="xMidYMid meet">
<metadata>
Created by potrace 1.16, written by Peter Selinger 2001-2019
</metadata>
<g transform="translate(0.000000,2000.000000) scale(0.100000,-0.100000)" stroke="none">
<path fill="#ffffff" d="M6514 17141 c-41 -25 -107 -104 -186 -221 -36 -52 -100 -147 -143
-210 -43 -63 -125 -185 -183 -270 -58 -85 -133 -195 -167 -245 -79 -116 -189
-276 -333 -490 -63 -93 -143 -210 -177 -260 -34 -49 -109 -160 -167 -245 -58
-85 -139 -204 -180 -265 -41 -60 -114 -168 -163 -240 -134 -197 -270 -398
-350 -515 -40 -58 -114 -168 -167 -245 -52 -77 -130 -192 -173 -255 -43 -63
-125 -185 -183 -270 -58 -85 -133 -195 -167 -245 -34 -49 -104 -153 -157 -230
-216 -318 -400 -590 -543 -800 -139 -203 -234 -344 -340 -500 -56 -82 -137
-202 -180 -265 -43 -63 -135 -198 -204 -300 -69 -102 -154 -225 -188 -275 -97
-138 -108 -171 -79 -251 8 -22 93 -201 189 -399 96 -198 489 -1008 872 -1800
384 -792 839 -1732 1012 -2090 174 -357 554 -1143 845 -1745 292 -602 539
-1105 551 -1117 11 -12 34 -27 51 -32 41 -13 7808 -515 7841 -507 45 11 93 66
206 234 62 92 227 338 367 547 141 209 364 542 497 740 133 198 371 554 530
790 159 237 388 579 510 760 122 182 350 521 507 755 156 234 386 576 510 760
123 184 363 542 533 795 170 253 422 627 559 832 138 204 261 391 274 415 46
89 88 -4 -738 1653 -414 831 -801 1609 -860 1730 -59 121 -451 909 -870 1750
-419 842 -804 1616 -856 1722 -99 201 -127 237 -187 248 -38 6 -7798 575
-7848 575 -19 0 -48 -9 -65 -19z m1074 -356 c411 -30 1267 -93 1902 -140 635
-46 1847 -135 2693 -197 l1538 -113 -68 -22 c-91 -29 -1150 -376 -1918 -628
-341 -112 -897 -294 -1235 -405 -828 -272 -1785 -585 -2233 -732 -202 -67
-369 -119 -371 -117 -3 4 -1063 2369 -1073 2395 -3 8 0 14 6 14 7 0 348 -25
759 -55z m-504 -1292 c284 -634 517 -1157 518 -1162 3 -9 -56 -49 -457 -313
-104 -68 -302 -199 -440 -290 -137 -90 -338 -222 -445 -293 -107 -71 -307
-203 -445 -293 -137 -91 -340 -225 -450 -297 -110 -73 -308 -203 -440 -290
-132 -87 -325 -215 -430 -283 -104 -69 -293 -193 -420 -277 -534 -352 -1167
-769 -1235 -813 -30 -20 -62 -40 -70 -46 -12 -9 -12 -7 1 9 16 20 63 89 271
395 58 85 139 205 180 265 41 61 114 169 163 240 134 197 270 398 350 515 40
58 114 168 167 245 52 77 130 192 173 255 43 63 125 185 183 270 58 85 133
196 167 245 34 50 104 153 157 230 211 312 275 405 353 520 45 66 124 183 177
260 52 77 130 192 173 255 43 63 129 190 191 282 62 92 133 195 157 230 24 35
101 149 172 253 71 105 156 231 190 280 80 116 188 275 340 500 228 336 207
310 221 283 6 -13 244 -541 528 -1175z m7078 585 c-76 -2018 -232 -6041 -234
-6043 -3 -3 -182 126 -478 342 -47 34 -127 93 -179 130 -51 37 -134 98 -185
135 -50 36 -113 83 -141 103 -27 20 -79 58 -115 84 -36 27 -84 61 -106 77 -23
16 -112 81 -198 144 -87 63 -172 125 -189 138 -18 12 -55 39 -83 60 -29 20
-157 113 -285 207 -129 93 -271 197 -316 230 -45 33 -125 92 -178 130 -88 63
-190 138 -330 240 -124 90 -241 175 -330 240 -53 39 -158 115 -233 170 -76 55
-147 107 -159 115 -12 8 -117 85 -233 170 -116 85 -221 162 -234 170 -12 8
-55 40 -96 70 -41 30 -85 62 -96 70 -12 8 -93 67 -179 130 -253 185 -259 189
-292 212 -47 34 -370 269 -518 378 -71 52 -141 103 -155 112 -14 10 -92 67
-175 128 -82 61 -171 125 -197 143 -26 17 -44 34 -40 38 4 4 264 91 577 194
314 103 849 278 1190 390 341 112 897 294 1235 405 338 111 896 294 1240 407
344 112 749 245 900 295 151 49 394 130 540 178 146 49 267 89 270 89 3 1 4
-36 2 -81z m1353 -2243 c78 -159 434 -875 790 -1590 795 -1596 1246 -2507
1243 -2510 -7 -4 -3308 192 -3313 197 -6 5 206 5676 221 5916 l6 104 455 -914
c250 -502 519 -1043 598 -1203z m-7860 -3398 c-13 -1957 -25 -3561 -28 -3563
-4 -4 -111 74 -407 296 -52 39 -212 158 -355 265 -143 106 -285 212 -315 235
-70 53 -666 498 -1125 840 -196 146 -382 285 -413 308 -31 24 -218 164 -414
310 -197 147 -466 348 -598 447 -132 99 -254 189 -269 200 -27 19 -131 97
-261 195 -30 23 -217 163 -415 310 -198 148 -386 288 -417 312 -32 23 -58 45
-57 48 0 3 26 21 57 41 31 20 190 124 352 231 162 107 374 246 470 310 96 63
294 193 440 290 338 223 621 410 880 580 113 74 313 206 445 293 132 87 326
214 430 283 105 69 316 209 470 310 154 102 359 237 455 300 96 64 281 185
410 270 534 353 684 451 686 449 1 -1 -8 -1603 -21 -3560z m495 3418 c15 -11
56 -40 90 -65 34 -25 75 -54 90 -65 16 -11 123 -90 240 -175 116 -85 226 -165
243 -177 38 -27 79 -56 327 -238 245 -179 287 -210 330 -240 19 -14 58 -42 86
-62 29 -21 122 -90 209 -153 86 -63 171 -125 189 -137 39 -29 89 -65 326 -238
252 -184 288 -211 330 -240 43 -31 96 -69 295 -215 165 -121 175 -128 275
-200 34 -25 75 -54 90 -65 16 -11 123 -90 240 -175 116 -85 226 -165 243 -177
38 -27 79 -56 327 -238 245 -179 287 -210 330 -240 19 -14 58 -42 86 -62 29
-21 122 -90 209 -153 86 -63 171 -125 189 -137 44 -32 103 -75 381 -278 135
-99 256 -187 268 -195 13 -8 38 -27 57 -41 19 -14 70 -52 113 -83 43 -32 77
-60 75 -61 -2 -2 -343 -169 -758 -370 -415 -202 -1088 -529 -1495 -728 -407
-198 -900 -437 -1095 -532 -195 -95 -695 -338 -1110 -540 -1236 -601 -1392
-677 -1395 -673 -3 2 42 7065 44 7076 1 1 33 -21 72 -50 39 -29 83 -62 99 -73z
m-5498 -3657 c31 -23 217 -162 412 -308 339 -252 900 -671 1426 -1065 133 -99
254 -189 269 -200 16 -11 68 -49 115 -85 133 -100 886 -663 1171 -875 141
-104 300 -224 355 -265 55 -41 241 -181 415 -310 174 -129 360 -269 415 -310
127 -96 296 -222 312 -231 12 -8 6 -18 -141 -229 -33 -47 -99 -141 -146 -210
-47 -69 -116 -168 -152 -220 -36 -52 -100 -144 -141 -205 -42 -60 -92 -132
-111 -160 -50 -72 -144 -208 -207 -300 -30 -44 -93 -134 -139 -200 -46 -66
-109 -156 -139 -200 -66 -97 -160 -232 -207 -300 -19 -27 -69 -99 -111 -160
-41 -60 -105 -153 -141 -205 -36 -52 -101 -146 -143 -208 -43 -62 -81 -115
-85 -117 -3 -3 -154 300 -334 673 -181 372 -443 913 -583 1202 -140 289 -285
588 -322 665 -95 198 -1239 2560 -1562 3225 -149 305 -281 579 -294 608 -28
61 -24 61 68 -10z m13208 -668 c855 -49 1583 -92 1618 -96 58 -5 62 -7 49 -22
-8 -10 -148 -217 -312 -462 -164 -245 -398 -593 -520 -775 -122 -181 -351
-523 -510 -760 -159 -236 -397 -592 -530 -790 -347 -516 -711 -1060 -1020
-1520 -148 -220 -368 -548 -490 -730 -122 -181 -295 -439 -385 -573 -89 -133
-164 -241 -165 -240 -1 2 42 426 96 943 148 1416 464 4448 501 4803 l32 312
41 0 c22 0 740 -40 1595 -90z m-1963 -132 c-4 -29 -85 -811 -182 -1738 -97
-927 -236 -2263 -310 -2968 -73 -706 -135 -1285 -137 -1287 -2 -1 -230 138
-508 311 -278 172 -523 324 -545 337 -22 13 -292 181 -600 372 -308 191 -778
483 -1045 648 -267 165 -511 317 -542 336 -32 20 -283 176 -558 346 -275 171
-529 328 -564 350 -36 22 -236 146 -445 275 -209 129 -381 238 -381 241 0 3
80 44 178 92 97 47 530 257 962 467 432 210 940 458 1130 550 190 92 680 331
1090 530 410 199 1071 521 1470 715 399 194 781 380 849 414 68 33 128 61 134
61 6 0 7 -20 4 -52z m-5577 -3291 c168 -104 541 -336 830 -515 819 -508 1602
-993 2118 -1314 261 -161 503 -311 538 -333 35 -22 296 -184 580 -359 284
-176 546 -339 582 -362 l67 -44 -36 0 c-20 0 -450 27 -955 60 -921 59 -3120
202 -5069 328 -807 52 -1040 70 -1040 80 0 12 59 103 145 222 19 27 60 85 90
130 54 78 136 199 200 290 58 83 145 209 200 290 30 44 107 155 170 245 63 90
140 201 170 245 30 44 96 139 145 210 50 71 115 166 145 210 77 113 163 237
202 292 18 26 58 83 88 128 30 44 91 132 135 195 44 63 109 157 145 208 l65
94 90 -55 c49 -31 227 -141 395 -245z"/>
</g>
</svg>
