<?xml version="1.0" encoding="UTF-8"?>
<!DOCTYPE svg PUBLIC "-//W3C//DTD SVG 1.1//EN" "http://www.w3.org/Graphics/SVG/1.1/DTD/svg11.dtd">
<svg xmlns="http://www.w3.org/2000/svg" version="1.1" width="540px" height="540px" style="shape-rendering:geometricPrecision; text-rendering:geometricPrecision; image-rendering:optimizeQuality; fill-rule:evenodd; clip-rule:evenodd" xmlns:xlink="http://www.w3.org/1999/xlink">
<g><path style="opacity:0.975" fill="#ffffff" d="M 268.5,43.5 C 272.272,46.0941 275.939,48.9274 279.5,52C 352.042,124.041 424.042,196.541 495.5,269.5C 424.042,342.459 352.042,414.959 279.5,487C 276.02,489.646 272.686,492.479 269.5,495.5C 196.541,424.042 124.041,352.042 52,279.5C 49.3542,276.02 46.5209,272.686 43.5,269.5C 117.854,193.48 192.854,118.146 268.5,43.5 Z M 257.5,103.5 C 271.83,178.494 285.164,253.494 297.5,328.5C 231.463,306.432 165.463,284.265 99.5,262C 152.368,209.299 205.035,156.465 257.5,103.5 Z M 296.5,119.5 C 345.632,168.132 394.632,216.965 443.5,266C 406.994,286.421 370.327,306.587 333.5,326.5C 320.844,257.563 308.51,188.563 296.5,119.5 Z M 218.5,181.5 C 229.301,181.299 234.968,186.633 235.5,197.5C 233.742,212.035 226.075,216.869 212.5,212C 205.525,204.557 204.692,196.39 210,187.5C 212.322,184.605 215.155,182.605 218.5,181.5 Z M 199.5,229.5 C 221.07,228.94 228.237,238.94 221,259.5C 213.341,270.54 203.841,272.373 192.5,265C 186.075,255.384 185.908,245.551 192,235.5C 194.114,232.879 196.614,230.879 199.5,229.5 Z M 132.5,310.5 C 132.56,309.957 132.893,309.624 133.5,309.5C 187.721,327.907 242.054,345.907 296.5,363.5C 286.514,389.812 275.68,415.812 264,441.5C 220.299,397.632 176.465,353.965 132.5,310.5 Z M 369.5,346.5 C 353.868,362.632 338.035,378.632 322,394.5C 325.312,385.09 329.146,375.757 333.5,366.5C 345.232,359.302 357.232,352.635 369.5,346.5 Z"/></g>
<g><path style="opacity:0.963" fill="#ffffff" d="M 214.5,167.5 C 225.628,167.279 235.628,170.445 244.5,177C 254.214,189.509 255.048,202.676 247,216.5C 245.5,218.667 243.667,220.5 241.5,222C 237.939,223.61 234.606,225.443 231.5,227.5C 239.909,236.578 242.742,247.245 240,259.5C 236.211,277.287 225.211,286.287 207,286.5C 187.829,285.258 175.162,275.591 169,257.5C 166.24,242.874 170.407,230.708 181.5,221C 186.082,218.695 190.749,216.695 195.5,215C 187.167,204.488 186.334,193.321 193,181.5C 198.24,173.74 205.407,169.073 214.5,167.5 Z M 218.5,181.5 C 215.155,182.605 212.322,184.605 210,187.5C 204.692,196.39 205.525,204.557 212.5,212C 226.075,216.869 233.742,212.035 235.5,197.5C 234.968,186.633 229.301,181.299 218.5,181.5 Z M 199.5,229.5 C 196.614,230.879 194.114,232.879 192,235.5C 185.908,245.551 186.075,255.384 192.5,265C 203.841,272.373 213.341,270.54 221,259.5C 228.237,238.94 221.07,228.94 199.5,229.5 Z"/></g>
</svg>
