<?xml version="1.0" standalone="no"?>
<!DOCTYPE svg PUBLIC "-//W3C//DTD SVG 20010904//EN"
 "http://www.w3.org/TR/2001/REC-SVG-20010904/DTD/svg10.dtd">
<svg version="1.0" xmlns="http://www.w3.org/2000/svg"
 width="512.000000pt" height="512.000000pt" viewBox="0 0 512.000000 512.000000"
 preserveAspectRatio="xMidYMid meet">

<g transform="translate(0.000000,512.000000) scale(0.100000,-0.100000)"
fill="#000000" stroke="none">
<path fill="#ffffff" d="M2510 5106 c-14 -8 -35 -31 -47 -53 -12 -21 -544 -1131 -1183 -2468
-782 -1634 -1164 -2444 -1167 -2472 -5 -38 -2 -46 30 -78 l35 -35 2382 0 2382
0 35 35 c32 32 35 40 30 78 -3 28 -391 850 -1176 2490 -644 1347 -1178 2458
-1186 2471 -29 43 -88 57 -135 32z m-72 -3662 c-21 -18 -1969 -1077 -1973
-1072 -3 2 442 938 988 2080 l992 2075 3 -1535 c2 -1221 -1 -1539 -10 -1548z
m1223 1020 c518 -1083 964 -2015 990 -2072 l49 -103 -68 38 c-38 21 -495 281
-1015 578 l-947 540 1 1540 0 1540 24 -46 c13 -25 448 -932 966 -2015z m-174
-1730 l908 -519 -937 -3 c-515 -1 -1361 -1 -1880 0 l-943 3 955 522 c525 287
963 521 972 519 9 -2 426 -237 925 -522z"/>
</g>
</svg>
