<?xml version="1.0" encoding="UTF-8"?>
<svg version="1.1" xmlns="http://www.w3.org/2000/svg" width="980" height="982">
<path d="M0 0 C0.82281464 0.00093658 1.64562927 0.00187317 2.49337769 0.00283813 C51.59320147 0.1227047 99.8716616 7.65125195 146.75 22.1875 C147.77351562 22.50299805 148.79703125 22.81849609 149.8515625 23.14355469 C213.69021509 43.04158432 275.67741331 76.60800744 325.16796875 121.8515625 C326.53577001 123.08899843 327.90886857 124.32154304 329.31860352 125.51098633 C336.01598227 131.19967505 342.16035414 137.44719245 348.35913086 143.66625977 C350.3079687 145.62045624 352.26209272 147.56925147 354.21679688 149.51757812 C360.27415935 155.57136405 366.23241498 161.63076203 371.75 168.1875 C372.80607999 169.39153244 373.86469497 170.59334591 374.92578125 171.79296875 C386.47127658 184.94477808 396.80972735 198.79368807 406.75 213.1875 C407.3996875 214.12698486 407.3996875 214.12698486 408.0625 215.08544922 C460.6202551 291.47896748 491.69984827 384.1492984 491.953125 477.078125 C491.95595238 477.800783 491.95877975 478.52344101 491.96169281 479.26799774 C491.97652783 483.09989255 491.98585325 486.93175131 491.99023438 490.76367188 C491.99459354 493.85819451 492.00840855 496.95243434 492.03125 500.046875 C492.17526959 519.9842656 491.48180711 539.39511129 488.75 559.1875 C488.59283508 560.34789795 488.59283508 560.34789795 488.43249512 561.53173828 C487.87576193 565.55929163 487.22279589 569.56167646 486.5 573.5625 C486.29093018 574.74054199 486.08186035 575.91858398 485.86645508 577.13232422 C471.34973506 656.6093975 438.64865375 733.11661485 387.75 796.1875 C386.96882812 797.1671875 386.18765625 798.146875 385.3828125 799.15625 C383.20050381 801.85889563 380.98603193 804.52914838 378.75 807.1875 C378.27675293 807.75098145 377.80350586 808.31446289 377.31591797 808.89501953 C367.01464203 821.1316669 367.01464203 821.1316669 361.3046875 826.63671875 C359.62571816 828.31146958 358.09962709 830.06942726 356.5625 831.875 C349.89858061 839.58953731 342.55769681 846.81555561 334.796875 853.421875 C332.29285151 855.5818342 329.87002302 857.82237993 327.4375 860.0625 C322.54625335 864.51273261 317.54914594 868.7749048 312.37304688 872.89013672 C311.24176006 873.79441742 310.1158442 874.70544093 308.99414062 875.62158203 C240.23174767 931.75378415 152.90181698 968.3364734 -54.25 980.1875 C-145.27802813 970.95386641 -234.24594532 932.27663613 -305.25 875.1875 C-306.20261719 874.42953125 -307.15523437 873.6715625 -308.13671875 872.890625 C-314.0520207 868.13138064 -319.67808129 863.1328117 -325.23046875 857.9609375 C-327.39458866 855.94893983 -329.61339282 854.01760408 -331.859375 852.09765625 C-337.04162001 847.58077832 -341.87439643 842.71294957 -346.72290039 837.8449707 C-348.30959946 836.25291034 -349.90157742 834.6662701 -351.49414062 833.08007812 C-356.95598454 827.62212228 -362.26447505 822.08905769 -367.25 816.1875 C-368.12684603 815.17772658 -369.00440622 814.16857269 -369.8828125 813.16015625 C-377.35820099 804.4310584 -384.36096884 795.38426053 -391.25 786.1875 C-391.74032715 785.53458984 -392.2306543 784.88167969 -392.73583984 784.20898438 C-403.08485456 770.39147955 -412.60220795 756.13034859 -421.25 741.1875 C-421.62560059 740.54071289 -422.00120117 739.89392578 -422.38818359 739.22753906 C-458.37425757 676.87196564 -480.80310014 608.91780183 -487.25 537.1875 C-487.33588379 536.24633835 -487.42176758 535.3051767 -487.51025391 534.335495 C-488.20332828 526.15635565 -488.42532042 518.03048964 -488.453125 509.82421875 C-488.45595238 509.15896494 -488.45877975 508.49371113 -488.46169281 507.80829811 C-488.47657023 504.27006281 -488.48586512 500.7318669 -488.49023438 497.19360352 C-488.49456568 494.34841715 -488.508263 491.50354319 -488.53125 488.65844727 C-488.73721656 462.59985741 -487.20773915 436.81967991 -483 411.0625 C-482.79093018 409.76159424 -482.58186035 408.46068848 -482.36645508 407.12036133 C-475.29642769 364.21746535 -461.26146764 323.64119102 -443.25 284.1875 C-442.87166016 283.34574219 -442.49332031 282.50398438 -442.10351562 281.63671875 C-435.97458516 268.01442805 -428.77700776 255.0820368 -421.25 242.1875 C-420.72970215 241.29289063 -420.2094043 240.39828125 -419.67333984 239.4765625 C-410.45613329 223.68400523 -400.4142995 208.67450769 -389.25 194.1875 C-388.83814453 193.64947754 -388.42628906 193.11145508 -388.00195312 192.55712891 C-380.76798685 183.12305785 -373.15124904 174.06874892 -365.25 165.1875 C-364.78577637 164.66397949 -364.32155273 164.14045898 -363.84326172 163.60107422 C-356.99198286 155.91542432 -349.76591745 148.60488939 -342.5 141.3125 C-341.61248047 140.42030762 -340.72496094 139.52811523 -339.81054688 138.60888672 C-334.78357552 133.59415331 -329.65154962 128.79440554 -324.25 124.1875 C-323.16684265 123.2382626 -322.08476171 122.28779514 -321.00390625 121.3359375 C-312.06121147 113.53542574 -302.77386899 106.26339123 -293.25 99.1875 C-292.51201172 98.63916504 -291.77402344 98.09083008 -291.01367188 97.52587891 C-221.35278893 46.00648134 -138.78970096 12.58431655 -52.625 2.9375 C-51.88113037 2.85414398 -51.13726074 2.77078796 -50.37084961 2.68490601 C-33.58703998 0.83361364 -16.8842163 -0.02523864 0 0 Z M-66.25 63.1875 C-67.04530121 63.32126038 -67.84060242 63.45502075 -68.66000366 63.59283447 C-72.69106997 64.28155227 -76.69113024 65.07118489 -80.6875 65.9375 C-81.86030518 66.18717529 -83.03311035 66.43685059 -84.24145508 66.6940918 C-169.57413207 85.28897365 -245.01270387 126.26358104 -306.97268677 187.73495483 C-308.3944053 189.14476623 -309.82006788 190.55059679 -311.24584961 191.95629883 C-317.3537581 198.05657311 -322.86152269 204.45038538 -328.25 211.1875 C-329.18501758 212.28912616 -330.12635133 213.38547414 -331.078125 214.47265625 C-365.60677744 254.06922381 -391.16279823 302.81305019 -408.25 352.1875 C-408.61077637 353.22197266 -408.97155273 354.25644531 -409.34326172 355.32226562 C-442.25886198 450.68493599 -438.65154848 558.30031099 -390.15234375 675.66015625 C-388.59202224 678.8505343 -386.96553058 682.00352359 -385.31298828 685.14697266 C-384.13221951 687.41359309 -382.98586316 689.69609108 -381.83984375 691.98046875 C-371.43634785 712.5257128 -359.0942497 731.7995203 -345.25 750.1875 C-344.80317871 750.78594727 -344.35635742 751.38439453 -343.89599609 752.00097656 C-334.97334982 763.9315978 -325.30964152 775.20586188 -315.25 786.1875 C-314.53577881 786.96939697 -314.53577881 786.96939697 -313.80712891 787.76708984 C-306.32998549 795.9470705 -298.88558133 804.00198982 -290.4765625 811.2421875 C-287.90085585 813.49254173 -285.3906591 815.80775908 -282.875 818.125 C-277.82517198 822.71450356 -272.65833674 827.02829687 -267.25 831.1875 C-266.58419922 831.7040918 -265.91839844 832.22068359 -265.23242188 832.75292969 C-245.60432763 847.93869678 -224.97960558 861.21976185 -203.25 873.1875 C-202.5374707 873.58630371 -201.82494141 873.98510742 -201.09082031 874.39599609 C-149.43442635 903.27292837 -89.18430954 919.91393088 -30.25 924.1875 C-29.13286621 924.27209473 -29.13286621 924.27209473 -27.99316406 924.35839844 C26.88694861 928.35440837 82.50393709 921.33879108 134.75 904.1875 C135.87680176 903.81786133 137.00360352 903.44822266 138.16455078 903.06738281 C179.81565058 889.20129434 219.37994417 869.23764588 254.75 843.1875 C255.59377197 842.57116699 255.59377197 842.57116699 256.45458984 841.94238281 C263.75789383 836.60086473 270.80334295 830.98277743 277.75 825.1875 C278.74515625 824.36765625 279.7403125 823.5478125 280.765625 822.703125 C295.68697418 810.32864373 310.43235085 796.96057188 323.0234375 782.19140625 C324.96741046 779.93516614 326.98323518 777.75386107 329 775.5625 C383.42394804 715.08124915 418.38136406 636.12223956 430.625 556 C430.81618408 554.75041504 431.00736816 553.50083008 431.2043457 552.21337891 C434.08817425 532.07239568 435.13086993 512.02109281 435.0625 491.6875 C435.06067719 490.55408173 435.05885437 489.42066345 435.05697632 488.25289917 C435.00790532 470.05810991 434.34270304 452.2205607 431.75 434.1875 C431.58902832 433.03056641 431.42805664 431.87363281 431.26220703 430.68164062 C424.76538663 385.42233078 411.34017555 339.75976047 389.85742188 299.29638672 C388.5496729 296.80601289 387.28312486 294.29624908 386.015625 291.78515625 C379.5821562 279.12240537 372.61565471 267.01250147 364.75 255.1875 C364.06405762 254.15036865 364.06405762 254.15036865 363.36425781 253.09228516 C351.23751995 234.84106449 337.65102803 217.76098854 322.90625 201.5625 C321.49789922 200.01127306 320.10144165 198.44914127 318.71875 196.875 C310.0927457 187.0902787 300.91227868 177.43416196 290.921875 169.0234375 C289.13428632 167.51234635 287.38443171 165.97480053 285.640625 164.4140625 C256.83485542 138.7757736 224.05485136 118.54658141 189.75 101.1875 C188.95400391 100.78144531 188.15800781 100.37539062 187.33789062 99.95703125 C151.03521925 81.57037142 110.64602095 69.79001598 70.5625 63.375 C69.3667334 63.18010986 68.1709668 62.98521973 66.93896484 62.78442383 C44.81380817 59.44430537 22.52119213 58.81021444 0.18334961 58.81689453 C-2.64210637 58.81705697 -5.46691302 58.80313572 -8.29223633 58.77587891 C-27.99871541 58.58907691 -46.77621892 59.84911436 -66.25 63.1875 Z " fill="#ffffff" transform="translate(488.25,-0.1875)"/>
<path d="M0 0 C9.09620219 3.04854057 15.55608943 18.02402575 20.35075378 25.7878418 C20.85912781 26.6109082 21.36750183 27.43397461 21.89128113 28.28198242 C36.49478479 52.10323582 48.8226222 76.50320248 58.35075378 102.7878418 C58.69718933 103.73353027 59.04362488 104.67921875 59.40055847 105.65356445 C72.52270082 141.84145851 76.74850566 178.86400569 76.61149597 217.17138672 C76.60076949 220.72014476 76.61147616 224.26839568 76.62419128 227.81713867 C76.63189701 239.49513968 76.34195535 251.10146044 75.46403503 262.7487793 C75.38707397 263.7741832 75.31011292 264.7995871 75.2308197 265.85606384 C69.23104484 337.67498055 32.44177667 408.28266705 -15.64924622 460.7878418 C-16.55219215 461.79511481 -17.45450868 462.8029523 -18.35627747 463.8112793 C-29.17931763 475.82993063 -40.93571445 486.78696591 -53.64924622 496.7878418 C-54.97499992 497.85526097 -56.30050081 498.92299418 -57.62580872 499.9909668 C-88.71316646 524.83446069 -124.07320233 543.80598429 -161.64924622 556.7878418 C-162.56238586 557.10591797 -163.47552551 557.42399414 -164.41633606 557.75170898 C-237.5711717 582.9484618 -319.6566129 582.01471949 -392.64924622 556.7878418 C-393.52822571 556.49184082 -394.4072052 556.19583984 -395.31282043 555.89086914 C-426.31581389 545.42078323 -454.82636429 530.4127372 -481.64924622 511.7878418 C-482.53144836 511.1798877 -483.41365051 510.57193359 -484.32258606 509.94555664 C-486.87888325 508.17747855 -489.42268833 506.39306593 -491.96174622 504.6003418 C-493.12794495 503.78944092 -493.12794495 503.78944092 -494.31770325 502.9621582 C-495.37320374 502.20491455 -495.37320374 502.20491455 -496.45002747 501.43237305 C-497.07046936 500.99256104 -497.69091125 500.55274902 -498.33015442 500.09960938 C-498.76545471 499.66672607 -499.200755 499.23384277 -499.64924622 498.7878418 C-499.64924622 495.7878418 -499.64924622 495.7878418 -498.4692212 494.23333062 C-497.90948087 493.67383449 -497.34974055 493.11433837 -496.77303839 492.53788781 C-495.80855648 491.56290875 -495.80855648 491.56290875 -494.82459009 490.56823313 C-494.10492142 489.85615966 -493.38525275 489.14408618 -492.64377594 488.41043472 C-491.50771886 487.26873595 -491.50771886 487.26873595 -490.34871113 486.10397255 C-487.77936023 483.52559563 -485.19934046 480.95815846 -482.61933899 478.39044189 C-480.76824004 476.53732082 -478.91779865 474.68354271 -477.06796312 472.82916045 C-473.02956634 468.78298483 -468.98559281 464.74245001 -464.93797684 460.70549774 C-458.91889363 454.70222849 -452.90838247 448.6904321 -446.89961312 442.67684174 C-436.79100713 432.56063414 -426.67534115 422.45151379 -416.55560303 412.34644318 C-406.5267896 402.33214836 -396.50085799 392.31498365 -386.47885132 382.29387665 C-385.85615627 381.67124269 -385.23346121 381.04860873 -384.59189661 380.40710708 C-382.06431683 377.87975681 -379.53675822 375.35238537 -377.00922746 372.82498607 C-353.95512502 349.77209605 -330.8937798 326.72646551 -307.82795715 303.68530273 C-286.05166986 281.93229183 -264.27993201 260.17474162 -242.51350403 238.41186523 C-241.84344337 237.7419161 -241.17338272 237.07196696 -240.4830172 236.38171633 C-237.78160171 233.6807497 -235.08018966 230.97977962 -232.3787778 228.27880936 C-231.03254343 226.93279536 -229.68630859 225.58678182 -228.34007331 224.24076874 C-226.99714525 222.89806204 -225.65421848 221.55535405 -224.31129302 220.21264476 C-202.91851659 198.82338479 -181.52176787 177.43809902 -160.12433717 156.05349524 C-153.85873692 149.79161328 -147.59336341 143.52950471 -141.3284893 137.26689625 C-128.14822709 124.09144551 -114.96682559 110.91714013 -101.78085119 97.7474058 C-96.32659626 92.29979621 -90.87309072 86.85144213 -85.42182541 81.40084076 C-80.90143539 76.88100345 -76.37939527 72.36282571 -71.85510304 67.84689431 C-69.5781516 65.57405577 -67.30224893 63.30018501 -65.02798289 61.02465895 C-62.57475948 58.57033885 -60.11849403 56.11910342 -57.66144562 53.66861343 C-56.96050628 52.96590462 -56.25956694 52.26319581 -55.53738701 51.5391928 C-51.60295743 47.62266039 -47.56475608 43.88660736 -43.35281941 40.26948474 C-41.21155827 38.40717294 -39.21587034 36.43359469 -37.24031067 34.3972168 C-36.47624405 33.6137085 -35.71217743 32.8302002 -34.92495728 32.02294922 C-34.12885544 31.20286377 -33.3327536 30.38277832 -32.51252747 29.5378418 C-30.78476172 27.7779907 -29.05622372 26.01889749 -27.32698059 24.26049805 C-24.62703384 21.51091357 -21.93200952 18.75717089 -19.24958801 15.99047852 C-16.64251005 13.30502958 -14.01700594 10.63883622 -11.38752747 7.9753418 C-10.58535294 7.1390625 -9.78317841 6.3027832 -8.95669556 5.44116211 C-8.20208542 4.68287109 -7.44747528 3.92458008 -6.66999817 3.14331055 C-6.01240005 2.46937256 -5.35480194 1.79543457 -4.67727661 1.10107422 C-2.64924622 -0.2121582 -2.64924622 -0.2121582 0 0 Z M-15.30058956 94.18568462 C-15.79922292 94.69082578 -16.29785627 95.19596694 -16.81159973 95.71641541 C-17.34275926 96.24657165 -17.87391878 96.77672789 -18.42117405 97.32294947 C-20.21162201 99.11243978 -21.99480318 100.90900368 -23.77815247 102.70556641 C-25.05553793 103.98515157 -26.33337036 105.26429068 -27.61161804 106.54301453 C-30.36902064 109.30335724 -33.1232287 112.06683558 -35.87504578 114.83274651 C-40.22257909 119.20247801 -44.57712712 123.56517269 -48.93269348 127.92689514 C-55.81890166 134.82449936 -62.70042301 141.72675793 -69.57993793 148.63103729 C-81.90389204 160.99927623 -94.23339982 173.36197288 -106.56812572 185.71946913 C-110.90049692 190.0602696 -115.23004306 194.40386313 -119.55737305 198.74968898 C-122.24588318 201.44881464 -124.93640018 204.14593312 -127.62742996 206.84254646 C-128.87882487 208.09742283 -130.12934671 209.35317052 -131.37894821 210.60983276 C-133.07932099 212.31960406 -134.78270814 214.02631384 -136.4868927 215.73228455 C-136.98552606 216.23519498 -137.48415941 216.73810542 -137.99790287 217.25625557 C-141.42111766 220.67377752 -141.42111766 220.67377752 -143.64924622 221.7878418 C-143.64924622 222.4478418 -143.64924622 223.1078418 -143.64924622 223.7878418 C-144.23217532 224.04587019 -144.81510443 224.30389858 -145.41569805 224.56974602 C-147.83738531 225.890446 -149.4386859 227.32835621 -151.38601685 229.27737427 C-152.11343079 230.00059372 -152.84084473 230.72381317 -153.59030151 231.46894836 C-154.37843735 232.2627037 -155.16657318 233.05645905 -155.97859192 233.87426758 C-157.23544296 235.1282711 -157.23544296 235.1282711 -158.51768494 236.40760803 C-160.81288301 238.69973645 -163.10355036 240.99627678 -165.39213204 243.29500818 C-167.79454326 245.70622278 -170.20224518 248.11214383 -172.60925293 250.51876831 C-176.65521779 254.56566968 -180.6972935 258.6164227 -184.7368927 262.66967773 C-189.39142172 267.33988429 -194.05110784 272.00489257 -198.71384937 276.66689885 C-203.69304635 281.64541697 -208.66841335 286.62774942 -213.64268851 291.6111846 C-215.06772306 293.03833902 -216.49345637 294.4647921 -217.91935158 295.89108658 C-220.59265917 298.56657531 -223.26264019 301.24534017 -225.93171692 303.92504883 C-226.71378006 304.70665878 -227.4958432 305.48826874 -228.30160522 306.29356384 C-231.64545804 309.656797 -234.91037932 313.03738421 -237.99731445 316.6388855 C-242.65460681 322.03711726 -247.74685673 327.00885245 -252.79768372 332.03393555 C-253.91072079 333.14504974 -255.02352767 334.25639457 -256.13612366 335.36795044 C-258.51855885 337.74724233 -260.90253417 340.12497601 -263.28773499 342.50149536 C-267.06515234 346.26530583 -270.83867703 350.03300315 -274.61164856 353.80126953 C-283.30128727 362.47890332 -291.99594684 371.15150066 -300.69065857 379.8240509 C-308.66436631 387.77753898 -316.63699055 395.73210531 -324.60556221 403.69073963 C-328.3504508 407.43066899 -332.09775834 411.1681519 -335.84698486 414.9037323 C-338.18483871 417.23408702 -340.52058312 419.56654748 -342.85578156 421.89956284 C-343.93236954 422.97429091 -345.00981547 424.04816042 -346.08821869 425.12106705 C-351.31118983 430.3182699 -356.46007348 435.53432299 -361.23699188 441.15073395 C-363.41096065 443.67083337 -365.74880074 445.98104717 -368.11799622 448.3190918 C-368.6019989 448.79930786 -369.08600159 449.27952393 -369.58467102 449.77429199 C-371.61224268 451.78584058 -373.6458747 453.79121832 -375.67903137 455.79711914 C-381.02621499 461.07907227 -386.32281508 466.34940578 -391.1743927 472.1003418 C-392.77064811 473.92674759 -394.46422448 475.60651976 -396.21174622 477.2878418 C-399.80705038 480.80993841 -402.7236562 484.70645564 -405.64924622 488.7878418 C-397.45124524 493.1076966 -389.20248717 496.6593055 -380.46174622 499.7253418 C-379.2484967 500.15282715 -378.03524719 500.5803125 -376.78523254 501.02075195 C-357.39582433 507.748333 -337.98739823 512.94797968 -317.64924622 515.7878418 C-316.84793274 515.90498535 -316.04661926 516.02212891 -315.22102356 516.14282227 C-241.48888051 526.49146299 -162.76050693 505.62402417 -103.21174622 461.25268555 C-99.98654954 458.81092601 -96.8147671 456.30642461 -93.64924622 453.7878418 C-92.74948059 453.08272461 -91.84971497 452.37760742 -90.92268372 451.65112305 C-82.75876804 445.13684815 -75.19477603 437.9981608 -67.64924622 430.7878418 C-66.77783997 429.95897461 -65.90643372 429.13010742 -65.00862122 428.27612305 C-60.28691153 423.67823441 -56.07130846 418.80221171 -51.95783997 413.6550293 C-49.619788 410.75125579 -47.20125915 407.92993982 -44.77424622 405.1003418 C-33.89761933 392.02489064 -25.1472409 377.48008279 -16.64924622 362.7878418 C-16.27702942 362.15088379 -15.90481262 361.51392578 -15.52131653 360.85766602 C5.94533414 323.80971914 19.34247935 277.43469785 19.55387878 234.4440918 C19.5608931 233.48507462 19.56790741 232.52605743 19.57513428 231.53797913 C19.59255952 228.45455178 19.59898795 225.37131659 19.60075378 222.2878418 C19.60142853 221.23394257 19.60210327 220.18004333 19.60279846 219.09420776 C19.58655734 203.13373421 19.15248262 187.54146988 16.35075378 171.7878418 C16.17382996 170.78398437 15.99690613 169.78012695 15.81462097 168.74584961 C10.85575403 141.50205732 2.59054606 115.61713471 -9.64924622 90.7878418 C-12.46111594 90.7878418 -13.39028786 92.28949412 -15.30058956 94.18568462 Z " fill="#ffffff" transform="translate(767.6492462158203,271.212158203125)"/>
<path d="M0 0 C1.42354797 -0.00151062 1.42354797 -0.00151062 2.87585449 -0.00305176 C19.29431155 0.00867916 35.29502523 0.89047881 51.5625 3.25 C52.55475586 3.38921875 53.54701172 3.5284375 54.56933594 3.671875 C93.36514286 9.27153707 131.03722853 22.21291302 165.73583984 40.29980469 C167.55378925 41.24546882 169.37979872 42.17398855 171.20703125 43.1015625 C188.30317862 51.8834394 207.08539093 62.36686275 220.5625 76.25 C219.24060416 79.1515198 217.79047838 81.30560582 215.60546875 83.62109375 C214.69365845 84.59091187 214.69365845 84.59091187 213.76342773 85.58032227 C213.09899658 86.27569092 212.43456543 86.97105957 211.75 87.6875 C210.70984741 88.7856604 210.70984741 88.7856604 209.64868164 89.90600586 C202.84155995 97.04747581 195.85877778 104.01361199 188.8347168 110.94116211 C187.99078369 111.77655518 187.14685059 112.61194824 186.27734375 113.47265625 C185.16540649 114.56719116 185.16540649 114.56719116 184.03100586 115.68383789 C182.06064195 117.73215112 180.20366784 119.80702098 178.35255432 121.95994568 C174.86774232 125.95296705 171.21516598 129.72642026 167.453125 133.45703125 C166.78059692 134.12809906 166.10806885 134.79916687 165.41516113 135.49057007 C163.96877216 136.9331823 162.52123019 138.37463929 161.07263184 139.81503296 C158.77419248 142.10059287 156.47899291 144.38936328 154.18457031 146.67895508 C148.488114 152.36211219 142.78620741 158.03979087 137.08447266 163.71765137 C132.25628244 168.5260461 127.43018926 173.33652743 122.60681152 178.14974976 C120.35614201 180.3939828 118.10245969 182.63515923 115.84863281 184.8762207 C114.4562308 186.26498694 113.06397082 187.6538956 111.671875 189.04296875 C110.74429382 189.96280045 110.74429382 189.96280045 109.79797363 190.9012146 C106.9557733 193.74307447 104.2211355 196.61880801 101.62441921 199.68723965 C96.40706161 205.6714542 90.73592984 211.21469415 85.11964417 216.81983948 C83.85277934 218.08785774 82.58613239 219.35609372 81.31968349 220.62452739 C77.85290413 224.09546942 74.38302725 227.56330012 70.91261518 231.03060949 C67.16501362 234.77594468 63.42029544 238.52416091 59.67520142 242.27200317 C52.34359434 249.60805368 45.00929017 256.94140198 37.67401118 264.27378077 C31.71178725 270.23374507 25.7505416 276.19468622 19.78999138 282.15632439 C18.94121369 283.00525531 18.092436 283.85418623 17.21793778 284.72884233 C15.49359313 286.4535067 13.76925073 288.17817332 12.04491054 289.90284216 C-4.11916725 306.06977056 -20.28630707 322.2336341 -36.45449729 338.39644962 C-50.32337088 352.26085556 -64.18962053 366.12788126 -78.05395508 379.99682617 C-94.15948084 396.10770507 -110.26662972 412.21695837 -126.37636715 428.32362598 C-128.09463873 430.04157902 -129.81290823 431.75953414 -131.53117561 433.47749138 C-132.37656685 434.32272834 -133.2219581 435.16796531 -134.09296725 436.03881552 C-140.04639047 441.9913758 -145.99865351 447.94509468 -151.95046806 453.89926338 C-159.20509881 461.15670053 -166.46151227 468.41234956 -173.72020727 475.66572184 C-177.42266486 479.3655538 -181.12432297 483.06617623 -184.82381248 486.76897621 C-188.21239044 490.16054051 -191.60328046 493.5497754 -194.99600518 496.93719136 C-196.22089135 498.16096332 -197.44494164 499.38557264 -198.66805475 500.61111671 C-204.26185608 506.21517954 -209.84108022 511.78910927 -215.88129812 516.91917032 C-218.08334088 518.80230894 -220.12536618 520.82540859 -222.16601562 522.88085938 C-223.41771545 524.13751404 -223.41771545 524.13751404 -224.69470215 525.41955566 C-225.56888794 526.30203979 -226.44307373 527.18452393 -227.34375 528.09375 C-228.75612932 529.5119165 -230.16851161 530.93008007 -231.58106232 532.34807587 C-234.03537501 534.81323132 -236.48634533 537.28170509 -238.9375 539.75 C-241.86687203 542.69985631 -244.79686285 545.64907839 -247.73083496 548.59436035 C-249.54970613 550.42068429 -251.36632652 552.24925361 -253.18029785 554.08044434 C-257.5928297 558.51044313 -262.06247977 562.79025442 -266.82366943 566.84509277 C-269.36375079 569.05634018 -271.56457342 571.54845162 -273.796875 574.0625 C-275.4375 575.25 -275.4375 575.25 -277.36645508 575.03027344 C-279.88361713 574.08192381 -280.65753414 573.12590339 -282.21484375 570.953125 C-282.97462524 569.90318359 -282.97462524 569.90318359 -283.74975586 568.83203125 C-284.28608643 568.06246094 -284.82241699 567.29289063 -285.375 566.5 C-285.94420166 565.69433594 -286.51340332 564.88867188 -287.09985352 564.05859375 C-326.50603709 507.60765053 -352.54320951 440.20931673 -352.60546875 370.83984375 C-352.6086998 369.49768543 -352.61206508 368.15552742 -352.61555481 366.81336975 C-352.62148449 364.01920764 -352.62340126 361.22507615 -352.62280273 358.4309082 C-352.62272175 355.61443625 -352.62963136 352.79812789 -352.64331055 349.98168945 C-352.74075253 329.57764055 -352.55122133 309.30220633 -348.3125 289.25 C-348.10004639 288.22567871 -347.88759277 287.20135742 -347.66870117 286.14599609 C-334.31916163 223.8606313 -306.23880309 165.63334022 -263.4375 118.25 C-262.86708984 117.61787598 -262.29667969 116.98575195 -261.70898438 116.33447266 C-249.57443239 102.9714765 -236.74712419 90.29165407 -222.4375 79.25 C-221.72996582 78.70230957 -221.02243164 78.15461914 -220.29345703 77.59033203 C-209.02531913 68.9077943 -197.60105005 60.63472617 -185.4375 53.25 C-184.66422363 52.78029785 -183.89094727 52.3105957 -183.09423828 51.82666016 C-127.81011456 18.58964535 -64.57049166 0.0476535 0 0 Z M-136.4375 92.25 C-137.07429687 92.58435059 -137.71109375 92.91870117 -138.3671875 93.26318359 C-165.02931396 107.37724602 -188.62624135 126.5600863 -210.4375 147.25 C-211.2625 148.03246094 -212.0875 148.81492187 -212.9375 149.62109375 C-217.70909638 154.26842981 -221.9781901 159.1865651 -226.1328125 164.390625 C-227.65734903 166.28208388 -229.21461945 168.14766273 -230.8046875 169.984375 C-264.23397605 208.64700266 -284.62581336 260.16117592 -292.4375 310.25 C-292.58703125 311.16072266 -292.7365625 312.07144531 -292.890625 313.00976562 C-297.55242683 342.32687279 -297.56116331 374.01762633 -292.4375 403.25 C-292.18009033 404.76787109 -292.18009033 404.76787109 -291.91748047 406.31640625 C-287.32338524 432.82174925 -279.78276512 459.23098433 -267.4375 483.25 C-263.32257665 481.58915627 -260.3941853 478.66275744 -257.22436523 475.65795898 C-256.57997466 475.05130874 -255.93558409 474.44465849 -255.27166653 473.8196249 C-245.17390358 464.23614797 -235.39747762 454.31702451 -225.57363057 444.45459294 C-222.64210203 441.51293745 -219.70720444 438.57464734 -216.77256775 435.63609314 C-209.34536882 428.19789636 -201.92246554 420.75541971 -194.5 413.3125 C-186.45771253 405.24810283 -178.41463578 397.18450114 -170.36667913 389.12576097 C-166.89017076 385.64430403 -163.41610589 382.16043333 -159.94396698 378.67461884 C-157.78187351 376.50502296 -155.61767132 374.33753975 -153.45291519 372.17060089 C-152.45719547 371.17302311 -151.46233334 370.17458842 -150.4684391 369.17519188 C-149.10157344 367.80100266 -147.73121106 366.43029427 -146.36073303 365.05970764 C-145.59853486 364.29528886 -144.83633669 363.53087008 -144.0510416 362.74328709 C-142.01352633 360.79952215 -139.95397952 358.96181802 -137.81870174 357.13078117 C-132.43923163 352.4536876 -127.44495812 347.39268133 -122.41503906 342.34779358 C-121.31527563 341.24846686 -120.2152922 340.14936019 -119.11510944 339.05045313 C-116.10952158 336.04709042 -113.10704242 333.04063699 -110.10508275 330.03364837 C-106.8609294 326.78516217 -103.61387171 323.53958126 -100.36717224 320.29364014 C-94.74805892 314.67505025 -89.13077423 309.05463755 -83.51473999 303.43297005 C-75.39497068 295.30506136 -67.27242976 287.17992709 -59.14921749 279.05545955 C-45.96877695 265.87283232 -32.79056946 252.68797514 -19.61376953 239.50170898 C-6.81644105 226.69519648 5.98194103 213.88973841 18.78173828 201.08569336 C19.57119032 200.2959786 20.36064236 199.50626383 21.17401719 198.69261832 C25.13461378 194.73071666 29.09523105 190.76883569 33.05585861 186.80696499 C65.89461374 153.95784918 98.72974357 121.10511145 131.5625 88.25 C104.85799368 61.54549368 37.94238535 57.95389123 2.625 57.875 C-46.33336337 57.98431129 -93.15160683 69.33198228 -136.4375 92.25 Z " fill="#ffffff" transform="translate(488.4375,135.75)"/>
<path d="M0 0 C0.66 0.33 1.32 0.66 2 1 C-12.19 15.19 -26.38 29.38 -41 44 C-41.66 43.67 -42.32 43.34 -43 43 C-35.05512821 34.31851758 -26.93743703 25.8309709 -18.625 17.5 C-17.37831543 16.24654785 -17.37831543 16.24654785 -16.10644531 14.96777344 C-11.70538736 10.5772738 -7.22861172 6.34242706 -2.50927734 2.29492188 C-1.64902341 1.55684571 -0.80149649 0.80149649 0 0 Z " fill="#ffffff" transform="translate(165,123)"/>
<path d="M0 0 C0.66 0.33 1.32 0.66 2 1 C-7.24 10.24 -16.48 19.48 -26 29 C-26.66 28.67 -27.32 28.34 -28 28 C-19.17734911 18.09122731 -9.78216348 8.95826469 0 0 Z " fill="#ffffff" transform="translate(255,224)"/>
</svg>
