<svg xmlns="http://www.w3.org/2000/svg" width="200" height="200" viewBox="0 0 200 200" version="1.1"><path d="M 62.741 131.799 C 75.808 147.089, 88.410 161.827, 90.744 164.549 L 94.987 169.500 94.994 145.865 L 95 122.230 67.960 113.115 C 53.088 108.102, 40.484 104, 39.951 104 C 39.418 104, 49.674 116.510, 62.741 131.799 M 125.500 112.912 L 99.500 121.666 99.231 145.074 C 98.967 168.080, 98.995 168.448, 100.857 166.491 C 101.899 165.396, 113.675 151.675, 127.026 136 C 140.377 120.325, 151.977 106.713, 152.805 105.750 C 154.052 104.300, 154.069 104.014, 152.905 104.079 C 152.132 104.122, 139.800 108.097, 125.500 112.912" stroke="none" fill="#fa0405" fill-rule="evenodd"/><path d="M 94.009 24.196 C 90.071 28.379, 31.515 97.125, 30.788 98.420 C 29.946 99.918, 94.531 176, 96.644 176 C 98.492 176, 163.275 100.149, 162.688 98.673 C 161.987 96.912, 98.288 22.596, 97.156 22.219 C 96.618 22.039, 95.202 22.929, 94.009 24.196 M 99 73.800 C 99 97.560, 99.387 117, 99.860 117 C 101.398 117, 154.476 98.892, 155.297 98.087 C 155.870 97.526, 109.969 42.412, 99.882 31.550 C 99.372 31, 99 48.794, 99 73.800 M 65.312 64.514 C 49.808 82.656, 37.433 97.793, 37.812 98.151 C 38.953 99.232, 93.013 117.320, 93.537 116.797 C 93.804 116.530, 93.905 97.235, 93.761 73.920 L 93.500 31.528 65.312 64.514 M 62.741 131.799 C 75.808 147.089, 88.410 161.827, 90.744 164.549 L 94.987 169.500 94.994 145.865 L 95 122.230 67.960 113.115 C 53.088 108.102, 40.484 104, 39.951 104 C 39.418 104, 49.674 116.510, 62.741 131.799 M 125.500 112.912 L 99.500 121.666 99.231 145.074 C 98.967 168.080, 98.995 168.448, 100.857 166.491 C 101.899 165.396, 113.675 151.675, 127.026 136 C 140.377 120.325, 151.977 106.713, 152.805 105.750 C 154.052 104.300, 154.069 104.014, 152.905 104.079 C 152.132 104.122, 139.800 108.097, 125.500 112.912" stroke="none" fill="#0704f8" fill-rule="evenodd"/></svg>